<svg xmlns="http://www.w3.org/2000/svg" viewBox="0 0 640 130" width="640" height="130" role="img" aria-label="MailFoundry">
  <defs>
    <linearGradient id="mf-flame-h" x1="0%" y1="0%" x2="0%" y2="100%">
      <stop offset="0%" stop-color="#FFD37A"/>
      <stop offset="55%" stop-color="#FF8A33"/>
      <stop offset="100%" stop-color="#E64A0E"/>
    </linearGradient>
    <linearGradient id="mf-foundry-text" x1="0%" y1="0%" x2="0%" y2="100%">
      <stop offset="0%" stop-color="#FFB13D"/>
      <stop offset="100%" stop-color="#E64A0E"/>
    </linearGradient>
  </defs>
  <g transform="translate(10,5) scale(0.5)">
    <rect x="72" y="10" width="56" height="12" rx="2" fill="#1B2430"/>
    <path d="M84 22 L116 22 L128 46 L72 46 Z" fill="#1B2430"/>
    <path d="M62 46 L138 46 L176 100 L138 178 L62 178 L24 100 Z" fill="#1B2430"/>
    <rect x="46" y="56" width="108" height="60" rx="4" fill="#FCFCFB"/>
    <path d="M46 58 L100 96 L154 58" fill="none" stroke="#1B2430" stroke-width="6" stroke-linecap="round" stroke-linejoin="round"/>
    <rect x="46" y="56" width="108" height="60" rx="4" fill="none" stroke="#1B2430" stroke-width="4"/>
    <rect x="34" y="122" width="132" height="6" fill="#0F151D"/>
    <path d="M100 134 C92 144 84 154 84 164 C84 174 91 180 100 180 C109 180 116 174 116 164 C116 156 111 148 105 141 C104 147 101 150 100 145 C99 139 100 134 100 134 Z" fill="url(#mf-flame-h)"/>
    <path d="M92 176 L108 176 L100 202 Z" fill="url(#mf-flame-h)"/>
  </g>
  <text x="130" y="82" font-family="Arial, Helvetica, sans-serif" font-weight="900" font-size="52" letter-spacing="-0.5" fill="#1B2430">Mail<tspan fill="url(#mf-foundry-text)">Foundry</tspan></text>
</svg>
